<?xml version="1.0" standalone="no"?>
<!DOCTYPE svg PUBLIC "-//W3C//DTD SVG 20010904//EN"
 "http://www.w3.org/TR/2001/REC-SVG-20010904/DTD/svg10.dtd">
<svg version="1.0" xmlns="http://www.w3.org/2000/svg"
 width="200.000000pt" height="200.000000pt" viewBox="0 0 200.000000 200.000000"
 preserveAspectRatio="xMidYMid meet">

<g transform="translate(0.000000,200.000000) scale(0.100000,-0.100000)"
fill="#000000" stroke="none">
<path d="M0 1000 l0 -1000 1000 0 1000 0 0 1000 0 1000 -1000 0 -1000 0 0
-1000z m400 453 c0 -170 5 -191 53 -227 46 -34 130 -17 154 32 4 9 10 91 13
182 l5 165 33 3 32 3 0 -230 0 -231 -35 0 c-24 0 -35 5 -35 15 0 19 -5 19 -35
-1 -19 -12 -42 -15 -95 -12 -62 3 -73 7 -103 36 -48 47 -57 88 -57 266 l0 156
35 0 35 0 0 -157z m410 77 l0 -80 37 20 c77 41 178 15 228 -57 19 -29 25 -50
25 -93 0 -64 -21 -104 -73 -144 -45 -35 -149 -38 -191 -5 l-26 20 0 -20 c0
-17 -6 -21 -35 -21 l-35 0 0 223 c0 123 3 227 7 230 3 4 19 7 35 7 l28 0 0
-80z m575 -65 c45 -26 69 -64 80 -127 l7 -38 -136 0 c-125 0 -136 -2 -136 -18
0 -28 53 -72 93 -79 29 -4 45 0 76 20 36 24 40 24 60 10 22 -15 22 -16 4 -35
-30 -34 -69 -48 -131 -48 -98 0 -162 58 -170 153 -6 81 32 144 108 179 35 16
104 8 145 -17z m185 3 c0 -13 3 -18 8 -12 11 16 48 34 71 34 16 0 21 -6 21
-29 0 -23 -5 -30 -27 -34 -16 -3 -38 -15 -50 -27 -21 -19 -23 -29 -23 -135 l0
-115 -35 0 -35 0 0 170 0 170 35 0 c30 0 35 -3 35 -22z m-218 -505 c48 -18 85
-44 105 -73 12 -17 11 -21 -15 -34 -28 -14 -31 -14 -52 9 -31 33 -82 48 -146
43 -43 -4 -61 -11 -85 -34 -143 -134 3 -370 178 -287 37 17 73 65 73 96 0 15
-10 17 -80 17 l-80 0 0 30 0 30 115 0 115 0 0 -125 0 -125 -35 0 c-33 0 -35 2
-35 33 0 17 -4 27 -8 21 -36 -55 -171 -72 -248 -31 -134 71 -165 264 -61 375
61 65 173 89 259 55z m-712 -194 c47 -110 91 -214 98 -230 l12 -29 -39 0 c-34
0 -40 4 -50 30 -6 16 -16 44 -22 60 l-12 31 -109 -3 -110 -3 -23 -55 c-21 -51
-26 -55 -59 -58 -31 -3 -35 -1 -29 15 5 15 122 293 170 406 14 33 20 37 52 37
l37 0 84 -201z m390 171 l0 -30 -70 0 -70 0 0 -200 0 -200 -35 0 -35 0 0 200
0 200 -70 0 -70 0 0 30 0 30 175 0 175 0 0 -30z"/>
<path d="M844 1396 c-42 -42 -46 -92 -11 -143 54 -80 169 -59 198 36 22 73
-34 141 -117 141 -28 0 -44 -8 -70 -34z"/>
<path d="M1229 1401 c-16 -16 -29 -34 -29 -40 0 -7 35 -11 100 -11 l101 0 -12
23 c-32 63 -110 77 -160 28z"/>
<path d="M479 796 l-37 -91 70 -3 c39 -2 73 -1 75 2 5 5 -49 148 -65 172 -4 7
-23 -28 -43 -80z"/>
</g>
</svg>
